<?xml version="1.0" standalone="no"?>
<!DOCTYPE svg PUBLIC "-//W3C//DTD SVG 20010904//EN"
 "http://www.w3.org/TR/2001/REC-SVG-20010904/DTD/svg10.dtd">
<svg version="1.0" xmlns="http://www.w3.org/2000/svg"
 width="512.000000pt" height="512.000000pt" viewBox="0 0 512.000000 512.000000"
 preserveAspectRatio="xMidYMid meet">

<g transform="translate(0.000000,512.000000) scale(0.100000,-0.100000)"
fill="#000000" stroke="none">
<path d="M2315 5109 c-800 -83 -1501 -518 -1927 -1196 -487 -774 -516 -1777
-75 -2578 200 -364 487 -676 841 -913 238 -159 600 -311 876 -366 214 -43 295
-51 530 -51 236 0 333 10 532 51 880 184 1615 842 1898 1702 92 278 125 491
125 802 0 301 -32 513 -116 775 -124 390 -330 728 -622 1024 -399 404 -893
653 -1462 737 -123 18 -478 26 -600 13z m-732 -1693 c53 -22 74 -56 115 -176
111 -328 245 -566 409 -727 74 -71 94 -81 128 -59 l25 16 0 310 c0 352 -1 358
-85 486 -49 74 -51 81 -34 117 20 44 44 47 327 47 295 0 305 -2 334 -60 16
-31 18 -72 18 -397 l0 -363 24 -15 c22 -15 27 -15 55 -1 73 38 209 200 304
363 26 44 89 161 140 259 80 156 97 181 127 196 30 15 64 18 232 18 108 0 208
-4 222 -10 15 -5 34 -26 43 -46 l18 -36 -73 -142 c-99 -194 -219 -393 -319
-528 -46 -62 -86 -126 -89 -143 -10 -53 17 -94 143 -220 118 -119 220 -242
315 -383 65 -97 73 -120 54 -165 -26 -63 -50 -69 -279 -65 -248 4 -247 3 -375
150 -150 172 -282 287 -398 348 -66 35 -83 37 -117 10 l-26 -20 -3 -198 c-3
-219 -7 -233 -71 -273 -29 -19 -44 -20 -177 -16 -173 6 -257 25 -407 97 -136
64 -236 135 -356 250 -256 245 -536 723 -676 1154 -37 114 -41 132 -30 163 21
65 48 73 262 73 137 0 196 -4 220 -14z"/>
</g>
</svg>
